<svg xmlns="http://www.w3.org/2000/svg" width="44" height="18" fill="none"><path fill="#EA0429" fill-rule="evenodd" d="M8.878.9C8.565.73 8.096.549 7.478.354 6.696.118 6.012 0 5.452 0c-1.483 0-2.71.439-3.665 1.34C.799 2.24.305 3.407.305 4.824c0 1.606.765 2.89 2.314 3.854.51.329 1.128.627 1.853.9l1.433.487c1.302.47 2.224.9 2.76 1.292.913.674 1.367 1.55 1.367 2.624 0 .846-.256 1.535-.783 2.076-.642.65-1.59.979-2.825.979-1.664 0-3.03-.549-4.118-1.66a5.92 5.92 0 01-1.581-2.899c-.025-.172-.148-.25-.354-.25-.247 0-.371.078-.371.235v4.887c0 .165.124.258.354.258l.264-.023.14-.227c.214-.376.461-.587.75-.627.238-.039.567.032 1.02.196 1.697.643 3.213.971 4.53.971 1.738 0 3.13-.446 4.127-1.347.963-.877 1.441-2.02 1.441-3.47 0-1.449-.585-2.624-1.754-3.517-.807-.595-2.29-1.277-4.423-2.021-1.408-.51-2.413-.979-2.99-1.433-.725-.58-1.095-1.293-1.095-2.17 0-.823.255-1.512.766-2.076.6-.65 1.466-.979 2.594-.979 1.054 0 2.034.313 2.949.924 1.169.784 1.87 1.912 2.133 3.36.024.103.066.165.124.205l.288.039c.23 0 .354-.102.354-.298V.705c0-.211-.124-.313-.387-.313a.346.346 0 00-.338.22c-.346.727-1.005.822-1.969.289zm19.48.02l.041-.25c0-.196-.083-.297-.26-.297H23.4c-.208 0-.308.102-.308.32 0 .227.116.328.326.328h.568c.46 0 .694.14.694.43 0 .116-.05.249-.167.39-.527.663-.928 1.13-1.213 1.404L17.8 8.94c-.276.258-.418.219-.418-.117V2.137c0-.765.476-1.155 1.42-1.155l.352-.04c.067-.038.092-.132.092-.288 0-.195-.092-.281-.276-.281h-5.543c-.284 0-.417.117-.417.335 0 .219.125.328.36.328.986 0 1.487.36 1.487 1.1v13.618c0 .742-.502 1.108-1.488 1.108-.234 0-.36.102-.36.312l.067.296.352.055h5.542c.184-.015.276-.117.276-.288 0-.156-.025-.258-.092-.297l-.351-.04c-.945 0-1.421-.374-1.421-1.146V11.18c0-.43.067-.694.209-.812l1.27-1.295c.193-.187.377-.171.527.04l4.598 6.601c.109.195.167.383.167.547 0 .25-.1.405-.31.483l-.843.102c-.226 0-.335.117-.335.343 0 .219.125.32.36.32h6.203c.15 0 .234-.101.234-.32 0-.234-.11-.351-.335-.351-1.02-.031-1.755-.421-2.24-1.163l-5.769-8.295c-.117-.172-.167-.297-.159-.39l.243-.336 4.565-4.713c.577-.586 1.337-.906 2.315-.976l.276-.047zM43.754.372H32.758c-.151 0-.235.078-.235.218v.156c0 .132.084.194.236.194 1.07.016 1.6.46 1.6 1.355v13.205c0 .537-.109.888-.345 1.083-.21.163-.632.256-1.255.272-.152 0-.236.062-.236.18v.271c0 .14.084.218.236.218h10.997c.161 0 .245-.078.245-.218v-.272c0-.117-.084-.18-.245-.18-.615-.015-1.02-.108-1.23-.271-.244-.195-.37-.546-.37-1.083V2.296c0-.584.126-.965.37-1.129.177-.148.59-.21 1.23-.226.161 0 .245-.062.245-.195V.591c0-.14-.084-.218-.245-.218zm-11.85 8.949h-6.436c-.15 0-.217-.08-.217-.224V8.8c0-.144.067-.225.217-.225h6.436c.15 0 .234.08.234.225v.297c0 .144-.084.224-.234.224zm7.886-7.245v14.14a.898.898 0 01-.28.663.966.966 0 01-.682.273h-.722c-.273 0-.497-.094-.698-.273a.857.857 0 01-.296-.662V2.077a.93.93 0 01.296-.686.971.971 0 01.698-.272h.722c.264 0 .489.085.681.272.185.195.281.429.281.686z" clip-rule="evenodd"/></svg>