<?xml version="1.0" encoding="utf-8"?>
<!-- Generator: Adobe Illustrator 26.5.0, SVG Export Plug-In . SVG Version: 6.00 Build 0)  -->
<svg version="1.1" id="Layer_1" xmlns="http://www.w3.org/2000/svg" xmlns:xlink="http://www.w3.org/1999/xlink" x="0px" y="0px"
	 viewBox="0 0 1920 1080" style="enable-background:new 0 0 1920 1080;" xml:space="preserve">
<style type="text/css">
	.st0{fill:#FFFFFF;}
</style>
<g>
	<path class="st0" d="M1835.04,222.95c-52-24.56-105.77-49.95-211.54-49.95s-159.54,25.39-211.54,49.95
		C1359.86,247.56,1305.98,273,1200,273s-159.86-25.44-211.96-50.05c-52-24.56-105.77-49.95-211.54-49.95
		c-105.76,0-159.53,25.39-211.53,49.95C512.86,247.56,458.99,273,353,273c-105.99,0-159.86-25.44-211.96-50.05
		c-38.97-18.4-78.93-37.27-141.02-45.58V1080h1920.45V257.1C1887.4,247.68,1861,235.21,1835.04,222.95z"/>
</g>
</svg>
